<svg width="64ptpx" height="64ptpx" viewBox="0 0 22.577778 22.577778" version="1.1" id="svg831" inkscape:version="1.1.1 (3bf5ae0d25, 2021-09-20)" sodipodi:docname="Ex.svg" inkscape:export-filename="C:\Users\User\Desktop\CARLOS PROJECT\4. APRIL 1\Done\2 - Cabbage.png" inkscape:export-xdpi="576" inkscape:export-ydpi="576" xmlns:inkscape="http://www.inkscape.org/namespaces/inkscape" xmlns:sodipodi="http://sodipodi.sourceforge.net/DTD/sodipodi-0.dtd" xmlns="http://www.w3.org/2000/svg" xmlns:svg="http://www.w3.org/2000/svg" xmlns:rdf="http://www.w3.org/1999/02/22-rdf-syntax-ns#" xmlns:cc="http://creativecommons.org/ns#" xmlns:dc="http://purl.org/dc/elements/1.1/" transform="rotate(0) scale(1, 1)">
  <defs id="defs825">
    <pattern id="EMFhbasepattern" patternUnits="userSpaceOnUse" width="6" height="6" x="0" y="0"/>
    <pattern id="EMFhbasepattern-9" patternUnits="userSpaceOnUse" width="6" height="6" x="0" y="0"/>
    <pattern id="EMFhbasepattern-0" patternUnits="userSpaceOnUse" width="6" height="6" x="0" y="0"/>
    <pattern id="EMFhbasepattern-7" patternUnits="userSpaceOnUse" width="6" height="6" x="0" y="0"/>
    <pattern id="EMFhbasepattern-2" patternUnits="userSpaceOnUse" width="6" height="6" x="0" y="0"/>
    <pattern id="EMFhbasepattern-98" patternUnits="userSpaceOnUse" width="6" height="6" x="0" y="0"/>
    <pattern id="EMFhbasepattern-6" patternUnits="userSpaceOnUse" width="6" height="6" x="0" y="0"/>
    <pattern id="EMFhbasepattern-01" patternUnits="userSpaceOnUse" width="6" height="6" x="0" y="0"/>
    <pattern id="EMFhbasepattern-07" patternUnits="userSpaceOnUse" width="6" height="6" x="0" y="0"/>
    <pattern id="EMFhbasepattern-8" patternUnits="userSpaceOnUse" width="6" height="6" x="0" y="0"/>
    <pattern id="EMFhbasepattern-4" patternUnits="userSpaceOnUse" width="6" height="6" x="0" y="0"/>
    <pattern id="EMFhbasepattern-40" patternUnits="userSpaceOnUse" width="6" height="6" x="0" y="0"/>
    <pattern id="EMFhbasepattern-08" patternUnits="userSpaceOnUse" width="6" height="6" x="0" y="0"/>
    <pattern id="EMFhbasepattern-04" patternUnits="userSpaceOnUse" width="6" height="6" x="0" y="0"/>
    <pattern id="EMFhbasepattern-014" patternUnits="userSpaceOnUse" width="6" height="6" x="0" y="0"/>
    <pattern id="EMFhbasepattern-27" patternUnits="userSpaceOnUse" width="6" height="6" x="0" y="0"/>
    <pattern id="EMFhbasepattern-09" patternUnits="userSpaceOnUse" width="6" height="6" x="0" y="0"/>
    <pattern id="EMFhbasepattern-5" patternUnits="userSpaceOnUse" width="6" height="6" x="0" y="0"/>
    <pattern id="EMFhbasepattern-018" patternUnits="userSpaceOnUse" width="6" height="6" x="0" y="0"/>
  </defs>
  <sodipodi:namedview id="base" pagecolor="#ffffff" bordercolor="#666666" borderopacity="1.0" inkscape:pageopacity="0.0" inkscape:pageshadow="2" inkscape:zoom="6.4882571" inkscape:cx="28.204801" inkscape:cy="42.615451" inkscape:document-units="pt" inkscape:current-layer="layer1" showgrid="false" units="pt" inkscape:window-width="1920" inkscape:window-height="1001" inkscape:window-x="-9" inkscape:window-y="-9" inkscape:window-maximized="1" inkscape:pagecheckerboard="true" inkscape:showpageshadow="false" inkscape:object-paths="true" inkscape:snap-intersection-paths="true" inkscape:snap-smooth-nodes="true" inkscape:snap-midpoints="true" showguides="true" inkscape:snap-bbox="true" inkscape:bbox-nodes="true" inkscape:snap-nodes="false" inkscape:snap-global="true" inkscape:lockguides="true">
    <inkscape:grid type="xygrid" id="grid1378"/>
    <sodipodi:guide position="0.97013831,21.607643" orientation="78.000048,0" id="guide1380" inkscape:locked="true"/>
    <sodipodi:guide position="0.97013831,0.97013129" orientation="0,78.000005" id="guide1382" inkscape:locked="true"/>
    <sodipodi:guide position="21.607639,0.97013129" orientation="-78.000048,0" id="guide1384" inkscape:locked="true"/>
    <sodipodi:guide position="21.607639,21.607643" orientation="0,-78.000005" id="guide1386" inkscape:locked="true"/>
  </sodipodi:namedview>
  <metadata id="metadata828">
    <rdf:rdf>
      <cc:work rdf:about="">
        <dc:format>image/svg+xml</dc:format>
        <dc:type rdf:resource="http://purl.org/dc/dcmitype/StillImage"/>
      </cc:work>
    </rdf:rdf>
  </metadata>
  <g inkscape:label="Icon" inkscape:groupmode="layer" id="layer1" transform="translate(0,-274.42223)">
    <path id="path3643" style="color:#808080;display:inline;fill:#808080;stroke-width:1;stroke-linecap:round;stroke-linejoin:round;-inkscape-stroke:none" d="m 17.082169,275.39246 c -1.815852,0.004 -3.018658,0.74497 -3.872603,1.71676 -0.685157,-0.1566 -1.298632,-0.2076 -1.799244,-0.0611 -0.553889,0.1621 -0.989117,0.51074 -1.323129,0.96004 -0.6680232,0.89858 -0.996687,2.1953 -1.4218588,3.63292 -0.8503435,2.87528 -1.988119,6.28958 -6.2376019,8.15311 -0.6268975,0.22292 -0.9009204,0.5161 -0.9009204,0.89378 0,0.39686 0.6259564,0.50716 1.1535957,0.49366 2.8965257,-0.14639 6.1269199,-1.53043 8.6305334,-3.31854 -0.880328,2.61019 -2.3129821,5.38069 -6.1804405,6.92483 -0.4500312,0.14319 -0.8225076,0.373 -0.765818,0.75607 0.1355182,0.46763 0.5825197,0.46596 0.96198,0.48586 2.5711243,-0.0155 5.4507785,-1.07356 7.8783575,-2.55077 2.427577,-1.47719 4.407409,-3.35876 4.987388,-4.86361 0.579978,-1.50483 0.820702,-2.56249 0.80404,-3.48567 -0.01417,-0.7846 -0.340115,-1.41232 -0.773614,-1.96164 0.227038,-0.29612 0.466085,-0.56345 0.808038,-0.73139 0.383408,-0.1883 0.891811,-0.28741 1.647254,-0.19421 0.198626,0.0243 0.373506,-0.13118 0.372838,-0.33127 v -1.33092 c -1.62e-4,-0.17349 -0.133639,-0.31771 -0.306588,-0.33127 -2.1486,-0.16958 -3.51618,0.62553 -4.458492,1.69921 -0.188829,-0.043 -0.371275,-0.0773 -0.548215,-0.1027 0.312321,-1.45801 0.126891,-2.65339 -0.57355,-3.53354 0.222591,-0.28604 0.452129,-0.54827 0.785302,-0.7119 0.383408,-0.18829 0.891812,-0.2874 1.64725,-0.19421 0.19887,0.0246 0.374206,-0.13088 0.373492,-0.33127 v -1.32832 c -8.4e-5,-0.17279 -0.132463,-0.31674 -0.30464,-0.33127 -0.201266,-0.016 -0.395446,-0.0231 -0.583291,-0.0227 z m 0.05521,0.63072 c 0.05582,3.2e-4 0.112334,10e-4 0.169534,0.004 v 0.76646 c -0.636898,-0.0231 -1.372585,0.0488 -1.649202,0.2085 -0.514031,0.25245 -0.870231,0.63994 -1.151647,1.03083 -0.09558,0.13383 -0.07901,0.3174 0.03898,0.43195 0.722834,0.69845 0.886139,1.79181 0.522888,3.33673 -0.214573,0.006 -0.415934,0.0346 -0.601484,0.0909 -0.558701,0.16975 -0.994089,0.53001 -1.327674,0.99186 -0.784934,1.30222 -1.123652,2.67678 -1.482915,3.88688 -2.9713839,1.85985 -6.0678761,3.551 -9.1547173,3.7401 3.570811,-1.41018 5.4900951,-3.78443 6.8027051,-8.68314 0.2255843,-0.76277 0.429475,-1.46928 0.6508491,-2.07466 l 0.3780341,1.39978 c 0.05348,0.20358 0.280245,0.30691 0.468974,0.21369 l 1.695968,-0.83206 c 0.115275,0.33558 0.230932,0.67055 0.34621,1.00615 0.05964,0.17353 0.248585,0.26597 0.422205,0.20655 0.173544,-0.0597 0.265978,-0.24858 0.206554,-0.42221 -0.156054,-0.4543 -0.312919,-0.90845 -0.468973,-1.36275 -0.06451,-0.19021 -0.281605,-0.2803 -0.461827,-0.1916 l -1.671934,0.82037 -0.48846,-1.80639 c 0.269687,-0.49671 0.747485,-0.9549 1.215304,-1.09839 0.403503,-0.11802 0.929109,-0.11438 1.63296,0.074 0.125481,0.0328 0.258595,-0.0101 0.341012,-0.11049 0.766798,-0.9322 1.836345,-1.63834 3.566663,-1.62647 z m 3.078854,4.92746 c 0.05577,3.7e-4 0.112384,10e-4 0.169532,0.004 v 0.67488 c -0.636894,-0.0231 -1.230625,0.003 -1.64985,0.20914 -0.51403,0.25246 -0.870231,0.63995 -1.151647,1.03084 -0.09541,0.13398 -0.07857,0.31757 0.03962,0.43195 0.465269,0.44956 0.692327,1.04465 0.706706,1.84146 0.0047,0.25368 -0.01394,0.5267 -0.05521,0.81778 l -1.665442,0.37284 -0.528081,-1.53682 c -0.06586,-0.1872 -0.279939,-0.27544 -0.458578,-0.18902 l -1.674535,0.81973 -0.48781,-1.8103 c 0.266633,-0.48861 0.739518,-0.94304 1.197115,-1.08863 0.552379,-0.14532 1.13732,-0.069 1.649844,0.0662 0.125901,0.0344 0.260274,-0.008 0.34361,-0.10847 0.766409,-0.93173 1.57618,-1.54759 3.564714,-1.53488 z m -7.182692,3.63747 0.379987,1.40108 c 0.05381,0.20191 0.278302,0.30478 0.466373,0.21369 l 1.696617,-0.83272 0.503398,1.46083 c 0.05505,0.15927 0.220533,0.25219 0.385183,0.2163 l 1.672583,-0.37348 c -0.103749,0.43375 -0.248173,0.89954 -0.432599,1.39457 -0.61555,1.55914 -2.498577,3.41667 -4.843672,4.84367 -2.290071,1.39352 -5.0053269,2.35723 -7.3554731,2.41826 4.8668351,-1.84668 5.8106851,-5.14605 6.8397201,-8.53829 0.241411,-0.81153 0.454838,-1.56451 0.687871,-2.20391 z m -2.848266,1.44264 c -0.141105,0.11615 -0.161991,0.32448 -0.04677,0.46638 0.116193,0.14109 0.324481,0.16198 0.466374,0.0468 0.217091,-0.17825 0.443234,-0.3725 0.667738,-0.57939 0.133952,-0.12482 0.141786,-0.33449 0.01752,-0.46898 -0.175952,-0.15595 -0.345169,-0.1303 -0.468965,-0.0195 z m -1.0873416,0.81519 c -0.095201,0.066 -0.1924239,0.13146 -0.2896968,0.19616 -0.1536697,0.10156 -0.1956032,0.30854 -0.093535,0.46182 0.1023309,0.15277 0.3092185,0.19351 0.4618274,0.0909 0.1006679,-0.067 0.2007714,-0.13305 0.299441,-0.20136 0.1513282,-0.10496 0.1886031,-0.31283 0.083142,-0.46378 -0.1163987,-0.14833 -0.3351754,-0.17352 -0.4611789,-0.0838 z m 6.5643236,1.4264 c -0.631929,0.98859 -1.567393,1.9124 -2.398778,2.59494 -0.140902,0.1164 -0.161494,0.32465 -0.04612,0.46637 0.116393,0.14279 0.326675,0.16376 0.468974,0.0468 0.868396,-0.71294 1.845501,-1.66957 2.535832,-2.74953 0.09893,-0.15463 0.05387,-0.36018 -0.100681,-0.45924 -0.181635,-0.0958 -0.358093,-0.0479 -0.45923,0.10068 z m -3.486119,3.41013 c -0.09521,0.0659 -0.18984,0.13146 -0.287099,0.19616 -0.153267,0.10143 -0.195158,0.30801 -0.09353,0.46117 0.102328,0.15277 0.309217,0.19351 0.461826,0.0909 0.100682,-0.067 0.198191,-0.13305 0.296844,-0.20136 0.152213,-0.10408 0.190678,-0.31215 0.08574,-0.46378 -0.15056,-0.1895 -0.344045,-0.15815 -0.463775,-0.0831 z" sodipodi:nodetypes="sccsscccccccccscscccccccsccccssccccccccccccccccccccccccccccccccccscccccccccccccccccccsccsccccccccccccccccccccccccccccc"/>
  </g>
</svg>