<?xml version="1.0"?>
<svg width="128" height="128" xmlns="http://www.w3.org/2000/svg" xmlns:svg="http://www.w3.org/2000/svg" enable-background="new 0 0 128 128" version="1.1" xml:space="preserve">
 <g class="layer">
  <title>Layer 1</title>
  <g id="svg_1">
   <g id="svg_2">
    <path d="m50,37c-1.66,0 -3,-1.34 -3,-3l0,-20c0,-1.66 1.34,-3 3,-3s3,1.34 3,3l0,20c0,1.66 -1.34,3 -3,3z" fill="#7f7f7f" id="svg_3"/>
   </g>
   <g id="svg_4">
    <path d="m78,37c-1.66,0 -3,-1.34 -3,-3l0,-20c0,-1.66 1.34,-3 3,-3s3,1.34 3,3l0,20c0,1.66 -1.34,3 -3,3z" fill="#7f7f7f" id="svg_5"/>
   </g>
   <path d="m72,74c10.48,0 19,-8.52 19,-19l0,-8c0,-1.66 -1.34,-3 -3,-3l-8,0c-5.03,0 -9.6,1.98 -13,5.18l0,-45.18c0,-1.66 -1.34,-3 -3,-3s-3,1.34 -3,3l0,45.18c-3.4,-3.2 -7.97,-5.18 -13,-5.18l-8,0c-1.66,0 -3,1.34 -3,3l0,8c0,10.48 8.52,19 19,19l5,0l0,18l-5,0c-7.17,0 -13,-5.83 -13,-13l0,-3c0,-1.66 -1.34,-3 -3,-3s-3,1.34 -3,3l0,3c0,10.48 8.52,19 19,19l5,0l0,18l-5,0c-7.17,0 -13,-5.83 -13,-13l0,-2c0,-1.66 -1.34,-3 -3,-3s-3,1.34 -3,3l0,2c0,10.48 8.52,19 19,19l5,0l0,2c0,1.66 1.34,3 3,3s3,-1.34 3,-3l0,-2l5,0c10.48,0 19,-8.52 19,-19l0,-3c0,-1.66 -1.34,-3 -3,-3s-3,1.34 -3,3l0,3c0,7.17 -5.83,13 -13,13l-5,0l0,-18l5,0c10.48,0 19,-8.52 19,-19l0,-3c0,-1.66 -1.34,-3 -3,-3s-3,1.34 -3,3l0,3c0,7.17 -5.83,13 -13,13l-5,0l0,-18l5,0zm8,-24l5,0l0,5c0,7.17 -5.83,13 -13,13l-5,0l0,-5c0,-7.17 5.83,-13 13,-13zm-37,5l0,-5l5,0c7.17,0 13,5.83 13,13l0,5l-5,0c-7.17,0 -13,-5.83 -13,-13z" fill="#7f7f7f" id="svg_6"/>
  </g>
 </g>
</svg>