<?xml version="1.0"?>
<svg width="1599.086328125" height="1048.4572387695312" xmlns="http://www.w3.org/2000/svg" xmlns:svg="http://www.w3.org/2000/svg" enable-background="new 0 0 2200 2200" version="1.1" xml:space="preserve">
 <g class="layer">
  <title>Layer 1</title>
  <g id="Objects">
   <g id="svg_2">
    <path d="m1026.69,502.38c-3.22,0 -7.02,0.06 -11.21,0.38c-4.2,0.33 -8.8,0.77 -13.64,1.29c-2.43,0.27 -4.91,0.54 -7.44,0.83c-2.52,0.31 -5.08,0.69 -7.66,1.05c-5.17,0.74 -10.42,1.5 -15.6,2.25c4.04,-0.27 8.13,-0.59 12.34,-0.99c2.1,-0.21 4.24,-0.43 6.42,-0.65c2.17,-0.24 4.39,-0.49 6.66,-0.7c4.54,-0.44 9.27,-0.97 14.26,-1.57c2.5,-0.31 5.06,-0.63 7.7,-0.96c2.64,-0.3 5.36,-0.61 8.17,-0.93z" fill="#7f7f7f" id="svg_3"/>
    <path d="m970.73,508.21c-0.08,0.02 -0.23,0.05 -0.32,0.07c0.29,-0.04 0.49,-0.07 0.73,-0.1c-0.16,0.01 -0.29,0.02 -0.41,0.03z" fill="#7f7f7f" id="svg_4"/>
    <path d="m92.14,979.72c0.27,-0.52 0.55,-1.04 0.83,-1.58c0.31,-0.53 0.61,-1.07 0.92,-1.61c0.63,-1.08 1.26,-2.2 1.91,-3.33c1.3,-2.27 2.64,-4.62 3.99,-6.98c-1.31,2.24 -2.63,4.51 -3.94,6.76c-0.65,1.13 -1.29,2.26 -1.92,3.37c-0.64,1.12 -1.25,2.24 -1.79,3.37z" fill="#7f7f7f" id="svg_5"/>
    <path d="m650.12,1015.39c1.25,-0.55 2.49,-1.09 3.74,-1.67c6.14,1.39 10.97,2.53 14.79,3.47c3.84,0.92 6.69,1.56 8.85,2.14c4.34,1.14 5.96,1.81 7.47,2.45c1.5,0.64 2.9,1.21 6.82,2.09c1.95,0.44 4.54,0.96 8.07,1.61c1.77,0.31 3.77,0.71 6.07,1.04c2.3,0.33 4.88,0.7 7.77,1.11c2.33,-0.09 5.28,0.03 8.68,0.31c3.41,0.2 7.28,0.56 11.45,1.01c2.08,0.24 4.24,0.49 6.46,0.75c2.22,0.23 4.5,0.47 6.82,0.71c2.31,0.26 4.66,0.52 7.03,0.79c1.18,0.14 2.37,0.28 3.56,0.41l3.58,0.34c4.77,0.46 9.52,0.92 14.1,1.36c4.58,0.32 8.99,0.62 13.05,0.87c4.07,0.27 7.79,0.36 11.01,0.36c3.21,0.02 5.92,-0.05 7.94,-0.23c-0.38,0.45 22.58,0.54 21.14,1.67c3.51,-1.02 9.41,-1.27 16.25,-1.35c3.42,-0.04 7.07,-0.2 10.78,-0.32c3.7,-0.16 7.45,-0.27 11.06,-0.67c2.61,-0.46 1.63,-0.53 -0.48,-0.52c-2.12,0.03 -5.38,-0.03 -7.35,-0.2c5.51,-0.32 11.01,-0.91 16.52,-1.42c2.75,-0.28 5.5,-0.49 8.25,-0.82l8.23,-1c3.24,-0.17 5.88,-0.25 7.79,-0.24c1.92,-0.03 3.11,0.01 3.46,0.17c0.7,0.28 -1.97,1.04 -8.99,1.81c10.81,-0.98 26.8,-2.91 46.46,-6.25c19.66,-3.35 43,-8.32 68.43,-15.6c25.42,-7.26 52.9,-16.81 80.85,-28.77c13.91,-6.12 28.04,-12.58 41.96,-19.88c7.02,-3.52 13.92,-7.39 20.86,-11.2l2.61,-1.44l2.56,-1.5l5.15,-3.01l5.14,-3.02l2.57,-1.51l2.53,-1.58c27.13,-16.64 53.21,-35.19 76.75,-54.99c2.93,-2.48 5.89,-4.91 8.76,-7.4c2.85,-2.53 5.67,-5.04 8.48,-7.54c1.4,-1.25 2.8,-2.5 4.2,-3.74c1.36,-1.28 2.71,-2.56 4.06,-3.83c2.7,-2.55 5.38,-5.07 8.04,-7.58c2.64,-2.53 5.17,-5.13 7.72,-7.67c1.27,-1.27 2.53,-2.54 3.79,-3.8c1.26,-1.25 2.52,-2.51 3.71,-3.81c2.43,-2.57 4.82,-5.12 7.2,-7.64c1.18,-1.26 2.36,-2.51 3.53,-3.76c1.14,-1.28 2.27,-2.55 3.39,-3.82c18.1,-20.16 33.1,-39.73 44.94,-56.83c1.46,-2.15 2.89,-4.25 4.29,-6.3c1.38,-2.06 2.79,-4.02 4.02,-6.02c2.52,-3.98 4.9,-7.73 7.13,-11.25c0.56,-0.88 1.1,-1.75 1.64,-2.6c0.51,-0.87 1.01,-1.73 1.51,-2.57c0.98,-1.68 1.93,-3.29 2.84,-4.85c1.81,-3.1 3.48,-5.94 4.95,-8.53c-1.85,2.47 -4.16,5.9 -6.65,9.82c-1.24,1.96 -2.55,4.03 -3.89,6.15c-1.39,2.08 -2.82,4.21 -4.24,6.34c-5.58,8.56 -11.68,16.6 -15.72,20.53c3.26,-5.33 6.23,-9.85 8.86,-13.84c2.54,-4.05 4.83,-7.52 6.87,-10.63c1.02,-1.56 2,-3 2.88,-4.42c0.87,-1.43 1.68,-2.79 2.44,-4.12c1.51,-2.64 2.82,-5.13 3.94,-7.67c0.96,-0.82 2.19,-2.15 3.48,-3.94c1.29,-1.79 2.73,-4.01 4.28,-6.53c1.54,-2.52 3.21,-5.34 4.93,-8.35c1.62,-3.06 3.33,-6.3 5.08,-9.6c3.56,-6.57 6.8,-13.62 10.09,-19.89c0.41,-0.79 0.82,-1.57 1.22,-2.33c0.38,-0.77 0.76,-1.53 1.13,-2.28c0.75,-1.49 1.49,-2.93 2.22,-4.29c1.46,-2.73 2.86,-5.16 4.2,-7.18c0.37,-2.45 0.64,-4.93 0.91,-7.39l5.63,-11.17c2.26,-6.51 4.15,-12.34 5.88,-17.51c1.62,-5.2 2.95,-9.8 4.16,-13.82c1.24,-4.01 2.14,-7.52 2.94,-10.56c0.8,-3.03 1.47,-5.59 2.05,-7.78c1.19,-4.35 1.77,-7.25 2.27,-9.29c0.49,-2.06 0.8,-3.3 1.1,-4.44c0.32,-1.14 0.6,-2.18 1.06,-3.84c0.47,-1.66 1.12,-3.93 1.95,-7.57c0.84,-3.64 2.08,-8.6 3.57,-15.67c0.68,-3.55 1.47,-7.61 2.38,-12.28c0.22,-1.17 0.45,-2.38 0.69,-3.63c0.2,-1.25 0.41,-2.54 0.63,-3.88c0.42,-2.67 0.87,-5.5 1.35,-8.51c3.95,-27.95 4.41,-48.84 4.44,-66.48c-0.05,-4.42 -0.01,-8.63 -0.1,-12.72c-0.13,-4.09 -0.24,-8.05 -0.32,-11.95c-0.05,-1.94 -0.04,-3.88 -0.13,-5.8c-0.07,-1.93 -0.14,-3.84 -0.21,-5.76c-0.12,-3.84 -0.18,-7.69 -0.23,-11.61c0.18,4.67 -0.56,17.09 -1.58,2.57c0.19,-0.32 0.32,-1.17 0.33,-2.41c0.01,-1.25 -0.08,-2.9 -0.21,-4.83c-0.29,-3.85 -0.73,-8.83 -1.31,-13.93c-0.67,-5.1 -1.35,-10.34 -1.81,-14.75c-0.2,-2.21 -0.48,-4.21 -0.61,-5.88c-0.14,-1.67 -0.18,-3.03 -0.08,-3.93c-0.97,-7.08 -3.3,-22.06 -5.83,-33.2c-1.27,-5.56 -2.4,-10.2 -3.2,-12.44c-0.86,-2.23 -1.21,-2.09 -0.94,1.85c-0.1,-1.99 -0.85,-5.97 -1.69,-10.49c-0.43,-2.26 -0.9,-4.65 -1.35,-6.98c-0.43,-2.34 -1.02,-4.58 -1.45,-6.59c-1.82,-8.05 -2.59,-12.21 1.18,-0.44c-0.9,-3.38 -1.8,-6.74 -2.68,-10.02c-0.42,-1.64 -0.89,-3.25 -1.38,-4.84c-0.49,-1.58 -0.97,-3.14 -1.43,-4.67c-0.95,-3.06 -1.88,-6 -2.79,-8.76c-0.92,-2.75 -1.96,-5.3 -2.9,-7.64l1.34,4.29c0.46,1.43 0.9,2.87 1.28,4.32l2.38,8.66c-1.8,-5.56 -3.39,-10.84 -5.19,-15.77c-0.87,-2.47 -1.71,-4.88 -2.52,-7.23c-0.83,-2.35 -1.58,-4.65 -2.46,-6.86c-1.69,-4.42 -3.3,-8.64 -4.84,-12.68c-0.74,-2.04 -1.62,-3.98 -2.42,-5.9c-1.25,-2.93 -2.48,-5.81 -3.7,-8.64c-1.39,-3.35 -2.9,-6.41 -4.35,-9.5c-1.42,-3.12 -2.99,-5.99 -4.48,-8.93c-3,-5.84 -5.96,-11.53 -8.91,-17.14c-1.46,-2.8 -2.96,-5.59 -4.49,-8.35c-1.51,-2.75 -3.03,-5.49 -4.55,-8.25c-1.53,-2.7 -3.06,-5.42 -4.6,-8.16c-0.77,-1.34 -1.54,-2.69 -2.31,-4.05c-0.39,-0.67 -0.78,-1.36 -1.17,-2.01l-1.2,-1.66c-0.4,0.31 -0.83,0.64 -1.25,0.98l1.22,-0.83l0.82,1.39c0.14,0.23 0.28,0.44 0.42,0.7l0.4,0.82l1.6,3.28l3.2,6.51l6.32,12.92c-2.27,-4.28 -4.51,-8.48 -6.7,-12.59c-1.09,-2.06 -2.17,-4.09 -3.23,-6.1c-0.53,-1 -1.06,-1.99 -1.58,-2.98l-0.4,-0.74l-0.4,-0.6l-0.81,-1.19c-7.35,5.31 -14.26,10.3 -20.86,14.98c-6.63,4.68 -12.81,9.04 -18.51,12.91c-5.73,3.62 -10.96,6.85 -15.64,9.63c-1.18,0.69 -2.32,1.36 -3.41,2c-0.56,0.32 -1.1,0.63 -1.63,0.93c-0.63,0.34 -1.25,0.68 -1.85,1c-1.11,0.45 -2.13,0.83 -3.08,1.13l2.67,-1.7l0.42,-0.26c0.34,-0.2 0.36,-0.22 0.49,-0.31l0.67,-0.44l1.34,-0.9l2.66,-1.83l10.69,-7.32l5.37,-3.68l1.35,-0.92l1.34,-0.99l2.68,-1.98l10.76,-7.95c-4.35,3.13 -8.6,6.19 -12.75,9.18c-2.07,1.54 -4.13,2.86 -6.17,4.22c-2.03,1.36 -4.04,2.7 -6.03,4.03c-3.98,2.65 -7.87,5.24 -11.68,7.78c-2.19,1.33 -4.34,2.64 -6.45,3.93c-1.84,1.1 -3.63,2.22 -5.42,3.27c-1.81,1.03 -3.59,2.05 -5.34,3.06c-1.75,1.01 -3.48,2 -5.2,2.99c-1.74,0.95 -3.46,1.88 -5.17,2.82c-13.69,7.46 -26.91,14.14 -42.59,21.4c3.83,-1.51 7.55,-3.23 11.33,-4.84c-9.76,5.05 -30.47,14.39 -57.61,23.86c-27.12,9.53 -60.77,18.83 -95.03,26.15c-34.25,7.39 -69.04,12.92 -97.88,17c-28.87,4.05 -51.71,6.81 -62.29,8.47c6.57,0 13.14,-0.01 19.68,-0.07c-6.03,0.85 -12.08,1.67 -18.15,2.46l-18.2,2.41c4.33,-0.37 17.1,-7.35 20.77,-7.1c-4.89,0.46 -11.05,1.04 -18.34,1.72c-7.31,0.65 -15.75,1.4 -25.15,2.24c-18.9,1.67 -41.67,3.68 -67.01,5.91c-25.41,2.28 -53.52,5.08 -82.96,8.65c-3.68,0.45 -7.38,0.91 -11.09,1.37c-1.86,0.23 -3.73,0.46 -5.59,0.69c-1.87,0.26 -3.74,0.52 -5.62,0.78c-7.51,1.06 -15.07,2.12 -22.67,3.2c-7.61,1.22 -15.25,2.45 -22.91,3.68c-3.83,0.58 -7.66,1.33 -11.49,2.03l-11.5,2.13c-30.66,5.84 -61.18,13.07 -90.02,21.57c-7.18,2.28 -14.27,4.53 -21.26,6.74c-1.74,0.57 -3.49,1.08 -5.21,1.69c-1.72,0.62 -3.43,1.24 -5.13,1.85c-3.4,1.22 -6.78,2.44 -10.12,3.65c-3.35,1.2 -6.66,2.4 -9.94,3.58c-3.31,1.29 -6.61,2.65 -9.86,3.95c-1.62,0.67 -3.25,1.28 -4.84,1.99c-1.58,0.7 -3.16,1.4 -4.73,2.1c-1.56,0.69 -3.12,1.38 -4.67,2.07c-1.55,0.68 -3.09,1.36 -4.59,2.11c-3.01,1.47 -5.98,2.91 -8.91,4.33c-1.47,0.7 -2.9,1.44 -4.32,2.2c-1.42,0.76 -2.83,1.5 -4.22,2.24c-5.63,2.88 -10.9,6.02 -16.03,8.96c-0.64,0.37 -1.28,0.74 -1.91,1.11c-0.62,0.38 -1.24,0.77 -1.86,1.15c-1.23,0.77 -2.45,1.53 -3.65,2.28c-2.41,1.52 -4.79,2.96 -7.07,4.46c-2.26,1.52 -4.47,3.02 -6.63,4.47c-2.16,1.46 -4.27,2.86 -6.25,4.34c-16.11,11.51 -27.94,21.67 -35.22,28.32c-3.01,2.61 -5.38,4.58 -7.1,6.16c-1.76,1.54 -3,2.56 -3.83,3.17c-1.66,1.21 -1.69,0.77 -0.98,-0.37c1.41,-2.26 5.74,-7.39 5.83,-7.56c-6.87,6.95 -10.92,11.3 -13.41,14.36c-2.52,3.02 -3.68,4.57 -4.72,5.97c-1.06,1.38 -1.92,2.71 -3.94,5.18c-1,1.24 -2.28,2.79 -3.98,4.8c-0.43,0.51 -0.88,1.04 -1.36,1.61c-0.46,0.58 -0.95,1.2 -1.47,1.85c-1.04,1.31 -2.2,2.76 -3.5,4.37c-5.88,6.9 0.07,-2.32 3.07,-6.49c-2.23,2.89 -4.46,5.69 -6.55,8.3c-1.06,1.29 -2.01,2.59 -2.92,3.81c-0.91,1.22 -1.78,2.38 -2.58,3.45c-1.58,2.16 -2.92,3.97 -3.83,5.35c-0.88,1.41 -1.37,2.35 -1.36,2.7c0.68,-0.92 1.3,-1.75 1.87,-2.51c0.59,-0.74 1.15,-1.39 1.65,-1.98c1.02,-1.18 1.86,-2.08 2.57,-2.77c1.41,-1.39 2.3,-1.96 3.01,-2.24c1.44,-0.56 2.11,-0.06 5.02,-2.63c-8.62,11.15 -16.59,22.81 -23.88,34.89c-0.09,-0.78 -0.16,-1.55 -0.23,-2.32c-1.24,2.01 -2.33,4.5 -3.69,7.56c-0.68,1.54 -1.41,3.23 -2.24,5.11c-0.77,1.9 -1.62,4 -2.57,6.32c-0.97,2.31 -2.03,4.85 -3.21,7.65c-1.12,2.83 -2.39,5.92 -3.82,9.28c-2.76,6.79 -6.06,14.78 -9.77,24.42c-7.41,19.55 -12.91,40.35 -16.59,61.6c-0.45,2.66 -0.92,5.32 -1.34,7.98c-0.35,2.68 -0.71,5.36 -1.06,8.04c-0.79,5.35 -1.19,10.74 -1.71,16.12c-0.11,1.35 -0.26,2.69 -0.34,4.04l-0.23,4.04l-0.29,5.32c-0.09,1.81 -0.02,3.68 -0.17,5.43c-1.05,0.65 -2.08,1.31 -3.11,1.99l-1.61,1.06l-2.33,1.57c-5.83,3.94 -11.53,7.94 -17.17,11.96c-11.27,8.06 -22.18,16.27 -32.76,24.56c0.15,-0.65 2.92,-3.25 7.02,-6.82c2.07,-1.76 4.47,-3.76 7.04,-5.88c2.57,-2.12 5.35,-4.32 8.11,-6.54c-7.31,5.31 -18.05,13.87 -24.93,18.55c6.86,-4.41 1.41,0.07 -4.32,4.91c-5.78,4.77 -11.81,9.92 -6.74,6.09c-8.99,8.43 -18.67,17.39 -28.64,26.57c-9.95,9.2 -20.04,18.78 -29.89,28.38c-19.59,19.3 -37.8,39.14 -50.79,56.72c0,0.62 -0.33,2.7 -0.83,5.92c-0.46,3.2 -1.1,7.53 -1.84,12.61c-0.77,5.01 -1.45,10.84 -2.16,16.93c-0.33,3.06 -0.72,6.15 -1,9.34c-0.25,3.17 -0.51,6.38 -0.77,9.58c-0.23,3.2 -0.5,6.33 -0.64,9.46c-0.11,3.12 -0.22,6.19 -0.33,9.15c-0.09,2.94 -0.16,5.77 -0.19,8.45c0.02,2.71 0.06,5.26 0.13,7.61c0.12,4.69 0.33,8.59 0.6,11.37c0.34,2.81 0.72,4.5 1.1,4.73c-6.35,10.48 -11.92,21.21 -13.99,24.34c1.14,-1.19 4.59,-7.02 8.5,-13.95c2.07,-3.42 4.25,-7.12 6.29,-10.67c0.51,-0.89 1,-1.77 1.51,-2.62c0.51,-0.85 1.02,-1.69 1.51,-2.49c0.97,-1.63 1.87,-3.16 2.67,-4.55l-0.48,-2.91c0.95,-1.59 1.79,-3.01 2.54,-4.27c0.81,-1.23 1.51,-2.31 2.13,-3.27c1.26,-1.9 2.19,-3.27 2.92,-4.29c1.44,-2.03 2.05,-2.65 2.65,-3.23c1.18,-1.19 2.45,-2.21 10.8,-14.07c1.09,-0.16 -2.15,5.25 -7.35,13.07c-2.49,3.97 -5.42,8.58 -8.56,13.39c-1.48,2.45 -3.01,4.96 -4.54,7.47c-0.77,1.26 -1.54,2.52 -2.31,3.77c-0.78,1.25 -1.55,2.5 -2.25,3.76c0.65,-1.13 1.35,-2.23 2.06,-3.32c0.71,-1.1 1.42,-2.19 2.13,-3.28c1.41,-2.17 2.81,-4.32 4.19,-6.43c1.34,-2.12 2.83,-4.11 4.19,-6.1c1.36,-1.97 2.68,-3.89 3.95,-5.72c0.63,-0.93 1.24,-1.83 1.84,-2.71c0.62,-0.87 1.22,-1.72 1.8,-2.54c1.16,-1.65 2.23,-3.22 3.19,-4.69c1.94,-2.92 3.37,-5.49 4.35,-7.45c6.25,-7.74 6.3,-7 6.66,-6.67c0.19,0.16 0.44,0.23 1.59,-0.92c1.11,-1.16 3.22,-3.46 7.08,-8.03c1.27,-1.72 2.58,-3.5 3.94,-5.33c1.4,-1.82 2.83,-3.69 4.3,-5.6c1.47,-1.91 2.97,-3.86 4.5,-5.84c1.53,-1.98 3.16,-3.93 4.78,-5.92c1.63,-1.97 3.28,-3.96 4.93,-5.95c1.68,-1.97 3.43,-3.89 5.16,-5.81c1.73,-1.91 3.48,-3.8 5.23,-5.65c1.78,-1.81 3.58,-3.58 5.38,-5.29l-0.04,0.45c17.2,-16.81 30.21,-29.9 43.17,-42.4c12.99,-12.45 25.99,-24.28 43.94,-37.29l-3.42,3.36c6.42,-4.49 15.56,-11.65 26.14,-19.44c5.29,-3.91 10.95,-7.94 16.76,-11.9c1.51,-1.01 3.04,-2.03 4.56,-3.05c2.98,-1.93 5.97,-3.88 8.96,-5.82c3.19,-1.94 6.35,-3.9 9.56,-5.82c3.24,-1.92 6.46,-3.83 9.66,-5.73c-3.68,2.16 -7.28,4.21 -10.12,5.77c-2.84,1.56 -4.88,2.65 -5.57,2.86c-0.69,0.22 0,-0.41 2.69,-2.25c2.68,-1.84 7.43,-4.86 14.8,-9.43c0.21,-0.12 0.41,-0.24 0.6,-0.35c0.25,-8.19 0.49,-16.05 0.72,-23.64c0.06,-1.91 0.11,-3.8 0.16,-5.67c0.02,-0.94 0.05,-1.88 0.07,-2.81c0.03,-0.94 0.14,-1.9 0.19,-2.85c0.04,-0.81 0.09,-1.63 0.13,-2.44c0.03,-0.42 0.06,-0.83 0.09,-1.25c0.05,-0.83 0.11,-1.66 0.16,-2.47c0.15,-3.28 0.53,-6.42 0.82,-9.49c0.29,-3.06 0.53,-6.05 0.97,-8.94c0.39,-2.89 0.77,-5.73 1.15,-8.52c0.5,-2.77 1,-5.5 1.49,-8.2c0.46,-2.72 1.11,-5.37 1.76,-8.01c0.33,-1.33 0.66,-2.65 1,-3.98c0.33,-1.32 0.67,-2.65 1.1,-3.95c0.62,-3.47 1.16,-6.97 1.83,-10.45l2.21,-10.39c1.05,-3.11 2.19,-6.51 3.42,-10.19c1.36,-3.61 2.8,-7.51 4.41,-11.62c0.86,-2.03 1.74,-4.13 2.65,-6.28c0.46,-1.08 0.92,-2.17 1.38,-3.27c0.51,-1.09 1.03,-2.19 1.55,-3.3c1.04,-2.23 2.11,-4.51 3.21,-6.85c1.18,-2.29 2.39,-4.63 3.63,-7.03c5.07,-9.5 10.96,-19.62 18.1,-29.82c7.14,-10.2 15.36,-20.58 24.75,-30.76c18.74,-20.37 42.3,-39.85 69.67,-55.95c13.66,-8.07 28.24,-15.32 43.48,-21.59c1.9,-0.77 3.81,-1.55 5.72,-2.33c0.93,-0.41 1.96,-0.76 2.97,-1.13l3.03,-1.1c4.04,-1.47 8.09,-2.95 12.14,-4.43l6.09,-2.22c2.03,-0.73 4.12,-1.34 6.18,-2.02c4.13,-1.32 8.26,-2.65 12.4,-3.97c33.18,-10.36 67.44,-18.24 100.96,-24.3c33.53,-6.07 66.33,-10.38 96.74,-13.82c15.18,-1.76 29.83,-3.16 43.63,-4.55c13.86,-1.29 26.85,-2.52 38.94,-3.56c24.22,-2.14 44.39,-3.91 59.15,-5.21l-4.62,0.65c7.12,-0.66 14.54,-1.34 22.23,-2.05c7.72,-0.75 15.66,-1.45 23.95,-2.31c16.53,-1.66 34.09,-3.57 52.5,-5.88c36.79,-4.62 76.99,-10.8 118.73,-20.05c20.88,-4.61 42.11,-10.09 63.44,-16.53c21.31,-6.45 42.72,-13.85 63.81,-22.55c21.08,-8.69 41.9,-18.48 61.95,-29.62c2.49,-1.42 4.99,-2.83 7.48,-4.25c1.24,-0.71 2.49,-1.4 3.73,-2.13l3.68,-2.21c2.45,-1.48 4.9,-2.96 7.34,-4.44c0.2,-0.12 -0.16,0.1 -0.23,0.14l0.03,-0.02l0.06,-0.04l0.12,-0.08l0.24,-0.16l0.48,-0.32c1.28,-0.84 2.54,-1.77 3.8,-2.73l0.14,-0.11c0.05,-0.03 0.06,0.08 0.1,0.11l0.16,0.3l0.34,0.6l0.66,1.2c0.42,0.82 0.86,1.63 1.25,2.47l0.27,0.57l0.12,0.26l0.45,1.01c0.58,1.32 1.17,2.64 1.75,3.95c0.54,1.34 1.07,2.67 1.6,4.01c2.1,5.34 4.35,10.58 6.16,15.95c7.75,21.27 13.65,42.48 17.97,63.06c4.32,20.59 7.08,40.53 8.69,59.36c0.19,2.35 0.37,4.69 0.55,7.01c0.18,2.31 0.39,4.61 0.46,6.9c0.21,4.56 0.42,9.05 0.62,13.45c0.07,4.41 0.14,8.74 0.2,12.98c0.02,1.06 0.03,2.11 0.05,3.16c-0.02,1.05 -0.03,2.09 -0.05,3.13c-0.03,2.07 -0.06,4.13 -0.09,6.16c-0.46,6.79 -1.32,14.19 -1.92,21.94c-0.42,3.87 -0.85,7.82 -1.28,11.82c-0.37,4 -0.94,8.03 -1.48,12.07c-0.94,8.09 -2.36,16.16 -3.58,23.98c-0.75,3.89 -1.49,7.71 -2.21,11.43c-0.38,1.86 -0.69,3.7 -1.11,5.49c-0.41,1.79 -0.82,3.55 -1.22,5.27c2.05,-7.61 2.82,-10.11 3.01,-9.13c0.08,0.48 0.02,1.83 -0.29,3.8c-0.32,1.97 -0.84,4.57 -1.51,7.58c-0.58,2.64 -1.12,5.13 -1.63,7.46c-0.59,2.31 -1.14,4.48 -1.65,6.51c-1.04,4.05 -1.84,7.58 -2.69,10.58c-1.7,6.01 -2.83,10.15 -3.6,13.03c-1.66,5.74 -1.79,6.5 -1.84,7.31c-0.06,0.81 -0.11,1.66 -1.77,7.54c-1.82,5.82 -5.09,16.76 -13.38,37.06c-1.21,2.92 -2.52,6.09 -3.93,9.5c-1.53,3.37 -3.17,6.97 -4.91,10.79c-1.69,3.84 -3.73,7.79 -5.8,11.96c-1.05,2.09 -2.12,4.23 -3.21,6.41c-1.16,2.15 -2.36,4.34 -3.57,6.58c-9.68,17.9 -22.27,38.1 -37.79,58.95c-1.88,2.65 -3.97,5.18 -5.99,7.81c-2.05,2.61 -4.07,5.28 -6.2,7.9c-2.17,2.6 -4.35,5.22 -6.55,7.86c-1.1,1.32 -2.2,2.64 -3.31,3.97c-1.15,1.3 -2.31,2.6 -3.46,3.91c-2.32,2.61 -4.65,5.24 -7,7.89c-2.42,2.58 -4.87,5.18 -7.33,7.79c-1.23,1.31 -2.46,2.62 -3.69,3.93c-1.28,1.28 -2.56,2.56 -3.84,3.84c-2.57,2.56 -5.15,5.14 -7.74,7.73c-2.67,2.51 -5.35,5.04 -8.03,7.58c-1.36,1.25 -2.68,2.56 -4.06,3.79c-1.39,1.23 -2.78,2.47 -4.17,3.7c-2.8,2.46 -5.54,5 -8.4,7.42c-2.87,2.41 -5.75,4.82 -8.64,7.24c-11.67,9.52 -23.68,18.84 -36.18,27.45l-4.65,3.27c-1.57,1.08 -3.16,2.1 -4.74,3.15c-3.16,2.1 -6.32,4.18 -9.47,6.27c-3.21,2 -6.42,3.99 -9.61,5.99c-1.61,0.98 -3.18,2.01 -4.81,2.96c-1.62,0.95 -3.24,1.89 -4.86,2.84c-12.88,7.7 -26.03,14.58 -39.03,21.07c-26.11,12.74 -51.94,23.26 -76.11,31.14c-24.14,7.97 -46.5,13.64 -65.56,17.58c-9.53,2.05 -18.27,3.46 -25.98,4.8c-3.87,0.56 -7.49,1.09 -10.84,1.57c-1.67,0.24 -3.28,0.47 -4.81,0.69c-1.55,0.17 -3.02,0.34 -4.42,0.5c-23.83,4.31 -51.19,6.58 -78.42,6.69c-27.25,0.14 -54.37,-1.62 -78.21,-3.66l4.85,-0.04c-1.6,-0.14 -3.43,-0.29 -5.48,-0.51c-2.04,-0.24 -4.3,-0.52 -6.77,-0.81c-2.46,-0.31 -5.13,-0.64 -7.99,-0.99c-2.85,-0.38 -5.88,-0.87 -9.09,-1.35c-12.86,-1.87 -28.43,-4.75 -45.74,-8.63c-17.3,-3.89 -36.33,-8.86 -56.02,-15.1c-19.69,-6.22 -40.05,-13.61 -60.1,-21.95c-20.05,-8.33 -39.78,-17.61 -58.32,-27.3c-18.55,-9.68 -35.91,-19.77 -51.4,-29.48c-3.85,-2.46 -7.68,-4.75 -11.27,-7.18c-1.04,-0.69 -2.05,-1.36 -3.03,-2.01c-1.51,-1.06 -2.94,-2.01 -4.22,-2.94c-0.64,-0.45 -1.26,-0.89 -1.84,-1.3c-0.13,-0.05 0.03,-0.12 0.06,-0.18l0.18,-0.18c0.11,-0.12 0.23,-0.24 0.34,-0.36c0.22,-0.24 0.44,-0.47 0.64,-0.69c0.83,-0.89 1.53,-1.66 2.08,-2.29l-1.72,1.28c0.45,-0.58 0.85,-1.11 1.32,-1.65c0.49,-0.56 0.97,-1.09 1.43,-1.58c0.91,-0.99 1.75,-1.83 2.5,-2.53c1.16,-1.05 2.24,-2.03 3.25,-2.95c1.21,-1.07 2.35,-2.08 3.43,-3.04c2.17,-1.9 4.15,-3.58 6.07,-5.18c1.93,-1.6 3.76,-3.16 5.76,-4.73c2,-1.57 4.09,-3.22 6.44,-5.09c2.35,-1.87 4.94,-3.97 7.93,-6.45c0.74,-0.62 1.52,-1.26 2.32,-1.93c0.81,-0.65 1.65,-1.33 2.53,-2.03c1.74,-1.41 3.61,-2.93 5.62,-4.57c-1.45,0.4 -0.45,-1.19 2.08,-3.99c1.27,-1.41 2.91,-3.11 4.82,-5.01c1.92,-1.9 4.17,-3.93 6.53,-6.09c2.37,-2.15 4.89,-4.41 7.45,-6.66c1.28,-1.13 2.56,-2.25 3.83,-3.37c1.31,-1.08 2.6,-2.16 3.87,-3.21c5.09,-4.21 9.81,-8.04 13.19,-10.73l-0.18,0.85c5.14,-4.01 11.91,-9.29 19.7,-15.37c7.93,-5.9 16.76,-12.77 26.36,-19.51c9.47,-6.92 19.66,-13.74 29.64,-20.46c5.07,-3.25 10.08,-6.46 14.97,-9.59c1.23,-0.77 2.45,-1.54 3.66,-2.31c1.22,-0.74 2.44,-1.47 3.64,-2.19c2.41,-1.45 4.78,-2.86 7.1,-4.25l-0.76,2.05c1.91,-1.2 3.91,-2.47 6.01,-3.8c2.09,-1.32 4.29,-2.69 6.6,-4.03c4.62,-2.7 9.55,-5.55 14.67,-8.49c2.55,-1.5 5.22,-2.88 7.89,-4.34c2.68,-1.43 5.38,-2.89 8.11,-4.35c2.73,-1.44 5.44,-2.96 8.22,-4.34c2.77,-1.4 5.54,-2.8 8.3,-4.18c10.96,-5.64 21.91,-10.62 31.44,-15.14c4.81,-2.15 9.3,-4.14 13.31,-5.93c4.02,-1.8 7.56,-3.41 10.55,-4.65c27.28,-11.46 62.68,-24.27 101.02,-35.84c19.19,-5.69 39.06,-11.3 59.03,-16.19c9.95,-2.61 19.97,-4.81 29.86,-7.18c2.46,-0.62 4.95,-1.12 7.41,-1.66c2.47,-0.54 4.93,-1.08 7.38,-1.62c4.91,-1.06 9.76,-2.22 14.61,-3.16l12.72,-1.28c2.12,-0.21 4.23,-0.45 6.36,-0.62l6.37,-0.5l12.72,-0.99c2.11,-0.18 4.24,-0.3 6.36,-0.41l6.36,-0.35l7.33,-1.37c0,0 1.17,-0.91 3.03,-2.5c1.85,-1.61 4.41,-3.77 7.17,-6.42c5.52,-5.28 11.91,-12.32 15.08,-19.32c3.16,-6.94 3.04,-13.94 -4.73,-19.05c-3.9,-2.55 -9.73,-4.63 -18.07,-6c-4.17,-0.74 -8.94,-1.07 -14.4,-1.28c-2.74,-0.09 -5.64,-0.13 -8.73,-0.11c-1.54,0.01 -3.13,0.03 -4.76,0.07c-1.63,0.07 -3.3,0.16 -5.02,0.27l1.52,-1.64l-21.46,3.56c-25.86,3.81 -37.33,8.03 -35.87,6.28l8.77,-1.74l4.39,-0.86l4.41,-0.77l17.62,-3.08c-25.89,4.25 -8.01,0.26 1.75,-2.25c-5.42,0.88 -10.76,1.74 -15.82,2.56c-5.07,0.79 -9.86,1.53 -14.18,2.2c-4.97,1.58 3.83,-0.24 7.91,-0.66c-6.9,1.55 -15.08,3.74 -23.67,5.78c-8.57,2.16 -17.5,4.41 -25.95,6c-13.05,3.19 -13.6,2.75 -14.7,2.45c-0.55,-0.16 -1.24,-0.28 -3.69,0.11c-1.23,0.19 -2.9,0.51 -5.22,1.02c-2.3,0.56 -5.25,1.31 -9.04,2.33c-5,1.34 -10,2.68 -14.99,4.02c-4.97,1.44 -9.93,2.88 -14.88,4.32l-7.43,2.15l-7.38,2.32c-4.91,1.54 -9.82,3.08 -14.73,4.62c-19.52,6.49 -38.93,13.19 -58,20.7c-19.14,7.31 -37.95,15.4 -56.63,23.73l-13.91,6.46l-6.95,3.24l-6.89,3.38l-13.76,6.78l-13.63,7.05c-9.13,4.64 -18.04,9.68 -27.04,14.58c-2.25,1.21 -4.47,2.49 -6.69,3.78l-6.66,3.84l-6.66,3.85c-2.22,1.27 -4.44,2.56 -6.62,3.91c-8.76,5.35 -17.61,10.58 -26.22,16.2c-4.33,2.78 -8.69,5.52 -13,8.34c-4.28,2.87 -8.56,5.74 -12.84,8.62l-6.42,4.32l-6.33,4.46c-4.23,2.98 -8.45,5.96 -12.68,8.94c-4.17,3.08 -8.34,6.15 -12.51,9.23l-6.26,4.63c-2.09,1.55 -4.11,3.17 -6.17,4.75c-4.11,3.19 -8.22,6.38 -12.33,9.57c-4.1,3.21 -8.11,6.56 -12.17,9.84c-8.16,6.51 -16.06,13.39 -24.05,20.19c-3.28,2.04 0.2,-0.89 3.72,-4.23c-2.38,2.08 -4.75,4.14 -7.1,6.19c-2.32,2.1 -4.61,4.19 -6.9,6.26c-2.28,2.07 -4.56,4.12 -6.82,6.17c-2.26,2.03 -4.51,4.06 -6.69,6.15c-4.39,4.13 -8.73,8.22 -13.04,12.28l-1.61,1.52l-2.72,2.7c-1.92,1.93 -3.84,3.85 -5.75,5.76c-3.83,3.83 -7.64,7.65 -11.44,11.45c-3.8,3.8 -7.59,7.59 -11.37,11.37c-3.73,3.88 -7.45,7.75 -11.16,11.61c-3.71,3.87 -7.4,7.72 -11.1,11.58l-5.53,5.77l-2.76,2.88l-0.68,0.72l-0.18,0.18l-0.08,0.09c-0.04,0.03 -0.07,0.06 -0.01,0.08l0.41,0.29l1.63,1.18c8.73,6.26 17.45,12.5 26.17,18.75c8.71,6.17 17.38,12.34 26.14,18.46c2.39,1.76 4.57,3.36 6.55,4.82c1.96,1.48 3.9,2.79 5.57,4.01c1.69,1.24 3.22,2.35 4.61,3.36c0.34,0.25 0.68,0.5 1.01,0.75c0.2,0.15 0.23,0.18 0.33,0.25l0.24,0.2c0.32,0.27 0.62,0.52 0.91,0.76c2.28,1.96 3.65,3.25 5.12,4.5c-1.43,-1.33 11.34,6.84 32.11,18.61c20.77,11.74 49.7,26.83 80,39.81c3.79,1.61 7.59,3.23 11.38,4.85c3.81,1.53 7.62,3.06 11.41,4.58c1.89,0.76 3.78,1.52 5.66,2.27c1.89,0.71 3.78,1.42 5.66,2.13c3.75,1.4 7.46,2.8 11.12,4.17c14.73,5.23 28.65,9.93 40.82,13.54c3.03,0.91 5.95,1.79 8.74,2.63c2.78,0.83 5.46,1.53 7.97,2.24c2.52,0.7 4.88,1.36 7.07,1.97c1.1,0.3 2.16,0.6 3.17,0.88c1.02,0.26 1.99,0.51 2.92,0.74c7.42,1.91 11.89,3.07 12.39,3.23z" fill="#7f7f7f" id="svg_6"/>
   </g>
   <g id="svg_7">
    <path d="m1026.69,1392.41c-3.22,-0.01 -7.02,0.05 -11.21,0.38c-4.2,0.32 -8.8,0.77 -13.64,1.28c-2.43,0.27 -4.91,0.55 -7.44,0.83c-2.52,0.31 -5.08,0.7 -7.66,1.05c-5.17,0.75 -10.42,1.51 -15.6,2.25c4.04,-0.26 8.13,-0.59 12.34,-0.99c2.1,-0.21 4.24,-0.42 6.42,-0.64c2.17,-0.24 4.39,-0.5 6.66,-0.7c4.54,-0.45 9.27,-0.97 14.26,-1.58c2.5,-0.31 5.06,-0.63 7.7,-0.96c2.64,-0.3 5.36,-0.61 8.17,-0.92z" fill="#7f7f7f" id="svg_8"/>
    <path d="m970.73,1398.24c-0.08,0.01 -0.23,0.05 -0.32,0.07c0.29,-0.04 0.49,-0.07 0.73,-0.11c-0.16,0.02 -0.29,0.03 -0.41,0.04z" fill="#7f7f7f" id="svg_9"/>
    <path d="m92.14,1869.75c0.27,-0.52 0.55,-1.05 0.83,-1.59c0.31,-0.53 0.61,-1.06 0.92,-1.6c0.63,-1.09 1.26,-2.2 1.91,-3.34c1.3,-2.27 2.64,-4.61 3.99,-6.98c-1.31,2.25 -2.63,4.51 -3.94,6.76c-0.65,1.13 -1.29,2.26 -1.92,3.38c-0.64,1.12 -1.25,2.24 -1.79,3.37z" fill="#7f7f7f" id="svg_10"/>
    <path d="m650.12,1905.42c1.25,-0.55 2.49,-1.09 3.74,-1.67c6.14,1.39 10.97,2.52 14.79,3.46c3.84,0.92 6.69,1.56 8.85,2.15c4.34,1.13 5.96,1.81 7.47,2.44c1.5,0.65 2.9,1.22 6.82,2.09c1.95,0.44 4.54,0.96 8.07,1.61c1.77,0.31 3.77,0.71 6.07,1.04c2.3,0.33 4.88,0.7 7.77,1.12c2.33,-0.09 5.28,0.03 8.68,0.31c3.41,0.2 7.28,0.55 11.45,1c2.08,0.24 4.24,0.49 6.46,0.75c2.22,0.23 4.5,0.47 6.82,0.71c2.31,0.26 4.66,0.53 7.03,0.79c1.18,0.14 2.37,0.28 3.56,0.42l3.58,0.34c4.77,0.45 9.52,0.91 14.1,1.35c4.58,0.33 8.99,0.63 13.05,0.87c4.07,0.28 7.79,0.36 11.01,0.37c3.21,0.01 5.92,-0.06 7.94,-0.23c-0.38,0.44 22.58,0.53 21.14,1.66c3.51,-1.02 9.41,-1.27 16.25,-1.35c3.42,-0.03 7.07,-0.2 10.78,-0.31c3.7,-0.17 7.45,-0.27 11.06,-0.67c2.61,-0.46 1.63,-0.54 -0.48,-0.53c-2.12,0.03 -5.38,-0.02 -7.35,-0.2c5.51,-0.32 11.01,-0.9 16.52,-1.42c2.75,-0.27 5.5,-0.49 8.25,-0.81l8.23,-1c3.24,-0.17 5.88,-0.25 7.79,-0.25c1.92,-0.02 3.11,0.01 3.46,0.17c0.7,0.29 -1.97,1.04 -8.99,1.82c10.81,-0.99 26.8,-2.91 46.46,-6.25c19.66,-3.36 43,-8.33 68.43,-15.61c25.42,-7.25 52.9,-16.81 80.85,-28.77c13.91,-6.11 28.04,-12.58 41.96,-19.87c7.02,-3.52 13.92,-7.39 20.86,-11.21l2.61,-1.44l2.56,-1.5l5.15,-3.01l5.14,-3.02l2.57,-1.51l2.53,-1.57c27.13,-16.65 53.21,-35.2 76.75,-55c2.93,-2.48 5.89,-4.9 8.76,-7.4c2.85,-2.52 5.67,-5.04 8.48,-7.53c1.4,-1.25 2.8,-2.5 4.2,-3.74c1.36,-1.28 2.71,-2.56 4.06,-3.83c2.7,-2.55 5.38,-5.08 8.04,-7.59c2.64,-2.53 5.17,-5.13 7.72,-7.66c1.27,-1.27 2.53,-2.54 3.79,-3.8c1.26,-1.26 2.52,-2.51 3.71,-3.81c2.43,-2.57 4.82,-5.12 7.2,-7.64c1.18,-1.26 2.36,-2.51 3.53,-3.76c1.14,-1.28 2.27,-2.56 3.39,-3.82c18.1,-20.17 33.1,-39.73 44.94,-56.83c1.46,-2.15 2.89,-4.25 4.29,-6.3c1.38,-2.06 2.79,-4.02 4.02,-6.03c2.52,-3.97 4.9,-7.73 7.13,-11.25c0.56,-0.88 1.1,-1.75 1.64,-2.6c0.51,-0.87 1.01,-1.72 1.51,-2.56c0.98,-1.68 1.93,-3.3 2.84,-4.85c1.81,-3.11 3.48,-5.95 4.95,-8.53c-1.85,2.46 -4.16,5.89 -6.65,9.81c-1.24,1.96 -2.55,4.03 -3.89,6.16c-1.39,2.08 -2.82,4.21 -4.24,6.33c-5.58,8.57 -11.68,16.61 -15.72,20.53c3.26,-5.33 6.23,-9.85 8.86,-13.84c2.54,-4.05 4.83,-7.52 6.87,-10.62c1.02,-1.56 2,-3.01 2.88,-4.43c0.87,-1.43 1.68,-2.79 2.44,-4.11c1.51,-2.65 2.82,-5.13 3.94,-7.67c0.96,-0.83 2.19,-2.15 3.48,-3.94c1.29,-1.8 2.73,-4.02 4.28,-6.54c1.54,-2.52 3.21,-5.33 4.93,-8.35c1.62,-3.06 3.33,-6.29 5.08,-9.59c3.56,-6.57 6.8,-13.62 10.09,-19.9c0.41,-0.78 0.82,-1.56 1.22,-2.33c0.38,-0.77 0.76,-1.53 1.13,-2.28c0.75,-1.49 1.49,-2.92 2.22,-4.29c1.46,-2.72 2.86,-5.16 4.2,-7.18c0.37,-2.44 0.64,-4.92 0.91,-7.39l5.63,-11.17c2.26,-6.5 4.15,-12.33 5.88,-17.5c1.62,-5.21 2.95,-9.8 4.16,-13.82c1.24,-4.02 2.14,-7.53 2.94,-10.56c0.8,-3.03 1.47,-5.6 2.05,-7.78c1.19,-4.36 1.77,-7.25 2.27,-9.3c0.49,-2.05 0.8,-3.29 1.1,-4.43c0.32,-1.14 0.6,-2.18 1.06,-3.84c0.47,-1.66 1.12,-3.93 1.95,-7.57c0.84,-3.64 2.08,-8.61 3.57,-15.67c0.68,-3.55 1.47,-7.61 2.38,-12.29c0.22,-1.17 0.45,-2.37 0.69,-3.62c0.2,-1.25 0.41,-2.55 0.63,-3.88c0.42,-2.67 0.87,-5.5 1.35,-8.51c3.95,-27.96 4.41,-48.84 4.44,-66.48c-0.05,-4.42 -0.01,-8.64 -0.1,-12.73c-0.13,-4.09 -0.24,-8.04 -0.32,-11.94c-0.05,-1.95 -0.04,-3.88 -0.13,-5.81c-0.07,-1.92 -0.14,-3.84 -0.21,-5.76c-0.12,-3.84 -0.18,-7.68 -0.23,-11.61c0.18,4.67 -0.56,17.1 -1.58,2.57c0.19,-0.32 0.32,-1.16 0.33,-2.41c0.01,-1.25 -0.08,-2.89 -0.21,-4.82c-0.29,-3.85 -0.73,-8.83 -1.31,-13.93c-0.67,-5.1 -1.35,-10.34 -1.81,-14.76c-0.2,-2.21 -0.48,-4.2 -0.61,-5.87c-0.14,-1.68 -0.18,-3.03 -0.08,-3.94c-0.97,-7.07 -3.3,-22.06 -5.83,-33.19c-1.27,-5.57 -2.4,-10.2 -3.2,-12.44c-0.86,-2.23 -1.21,-2.1 -0.94,1.84c-0.1,-1.98 -0.85,-5.96 -1.69,-10.48c-0.43,-2.26 -0.9,-4.65 -1.35,-6.98c-0.43,-2.34 -1.02,-4.58 -1.45,-6.6c-1.82,-8.05 -2.59,-12.2 1.18,-0.44c-0.9,-3.38 -1.8,-6.73 -2.68,-10.01c-0.42,-1.64 -0.89,-3.26 -1.38,-4.84c-0.49,-1.58 -0.97,-3.14 -1.43,-4.67c-0.95,-3.06 -1.88,-6 -2.79,-8.76c-0.92,-2.76 -1.96,-5.3 -2.9,-7.64l1.34,4.29c0.46,1.43 0.9,2.86 1.28,4.31l2.38,8.67c-1.8,-5.57 -3.39,-10.85 -5.19,-15.77c-0.87,-2.48 -1.71,-4.89 -2.52,-7.24c-0.83,-2.34 -1.58,-4.65 -2.46,-6.85c-1.69,-4.43 -3.3,-8.64 -4.84,-12.69c-0.74,-2.03 -1.62,-3.97 -2.42,-5.9c-1.25,-2.93 -2.48,-5.8 -3.7,-8.63c-1.39,-3.36 -2.9,-6.42 -4.35,-9.5c-1.42,-3.12 -2.99,-6 -4.48,-8.93c-3,-5.84 -5.96,-11.54 -8.91,-17.14c-1.46,-2.81 -2.96,-5.59 -4.49,-8.36c-1.51,-2.74 -3.03,-5.49 -4.55,-8.24c-1.53,-2.71 -3.06,-5.43 -4.6,-8.16c-0.77,-1.35 -1.54,-2.7 -2.31,-4.05c-0.39,-0.67 -0.78,-1.37 -1.17,-2.01l-1.2,-1.67c-0.4,0.32 -0.83,0.65 -1.25,0.98l1.22,-0.82l0.82,1.38c0.14,0.24 0.28,0.44 0.42,0.71l0.4,0.82l1.6,3.27l3.2,6.52l6.32,12.92c-2.27,-4.28 -4.51,-8.49 -6.7,-12.6c-1.09,-2.05 -2.17,-4.08 -3.23,-6.09c-0.53,-1 -1.06,-2 -1.58,-2.99l-0.4,-0.74l-0.4,-0.59l-0.81,-1.19c-7.35,5.31 -14.26,10.29 -20.86,14.97c-6.63,4.69 -12.81,9.05 -18.51,12.91c-5.73,3.63 -10.96,6.86 -15.64,9.64c-1.18,0.69 -2.32,1.35 -3.41,2c-0.56,0.31 -1.1,0.62 -1.63,0.93c-0.63,0.34 -1.25,0.67 -1.85,1c-1.11,0.45 -2.13,0.83 -3.08,1.13l2.67,-1.7l0.42,-0.26c0.34,-0.2 0.36,-0.23 0.49,-0.31l0.67,-0.44l1.34,-0.91l2.66,-1.82l10.69,-7.33l5.37,-3.67l1.35,-0.92l1.34,-0.99l2.68,-1.98l10.76,-7.95c-4.35,3.13 -8.6,6.19 -12.75,9.18c-2.07,1.54 -4.13,2.85 -6.17,4.22c-2.03,1.35 -4.04,2.7 -6.03,4.02c-3.98,2.65 -7.87,5.24 -11.68,7.78c-2.19,1.34 -4.34,2.65 -6.45,3.93c-1.84,1.11 -3.63,2.22 -5.42,3.28c-1.81,1.03 -3.59,2.05 -5.34,3.05c-1.75,1.01 -3.48,2.01 -5.2,2.99c-1.74,0.95 -3.46,1.89 -5.17,2.82c-13.69,7.46 -26.91,14.14 -42.59,21.4c3.83,-1.51 7.55,-3.22 11.33,-4.83c-9.76,5.04 -30.47,14.39 -57.61,23.86c-27.12,9.53 -60.77,18.83 -95.03,26.15c-34.25,7.39 -69.04,12.91 -97.88,16.99c-28.87,4.05 -51.71,6.82 -62.29,8.47c6.57,0.01 13.14,-0.01 19.68,-0.06c-6.03,0.85 -12.08,1.66 -18.15,2.46l-18.2,2.4c4.33,-0.36 17.1,-7.34 20.77,-7.09c-4.89,0.46 -11.05,1.03 -18.34,1.72c-7.31,0.65 -15.75,1.4 -25.15,2.24c-18.9,1.67 -41.67,3.67 -67.01,5.9c-25.41,2.28 -53.52,5.09 -82.96,8.65c-3.68,0.46 -7.38,0.91 -11.09,1.37c-1.86,0.23 -3.73,0.46 -5.59,0.7c-1.87,0.25 -3.74,0.52 -5.62,0.78c-7.51,1.05 -15.07,2.12 -22.67,3.19c-7.61,1.23 -15.25,2.46 -22.91,3.69c-3.83,0.58 -7.66,1.33 -11.49,2.03l-11.5,2.12c-30.66,5.84 -61.18,13.08 -90.02,21.58c-7.18,2.28 -14.27,4.52 -21.26,6.74c-1.74,0.57 -3.49,1.08 -5.21,1.69c-1.72,0.62 -3.43,1.23 -5.13,1.84c-3.4,1.23 -6.78,2.45 -10.12,3.65c-3.35,1.21 -6.66,2.4 -9.94,3.59c-3.31,1.29 -6.61,2.64 -9.86,3.95c-1.62,0.67 -3.25,1.28 -4.84,1.99c-1.58,0.7 -3.16,1.4 -4.73,2.09c-1.56,0.7 -3.12,1.39 -4.67,2.08c-1.55,0.68 -3.09,1.36 -4.59,2.11c-3.01,1.46 -5.98,2.91 -8.91,4.33c-1.47,0.69 -2.9,1.44 -4.32,2.2c-1.42,0.75 -2.83,1.5 -4.22,2.24c-5.63,2.88 -10.9,6.02 -16.03,8.96c-0.64,0.37 -1.28,0.74 -1.91,1.1c-0.62,0.39 -1.24,0.78 -1.86,1.16c-1.23,0.77 -2.45,1.53 -3.65,2.28c-2.41,1.52 -4.79,2.95 -7.07,4.45c-2.26,1.53 -4.47,3.02 -6.63,4.48c-2.16,1.45 -4.27,2.85 -6.25,4.34c-16.11,11.51 -27.94,21.67 -35.22,28.31c-3.01,2.61 -5.38,4.59 -7.1,6.16c-1.76,1.55 -3,2.57 -3.83,3.17c-1.66,1.21 -1.69,0.78 -0.98,-0.36c1.41,-2.26 5.74,-7.39 5.83,-7.56c-6.87,6.95 -10.92,11.29 -13.41,14.36c-2.52,3.02 -3.68,4.57 -4.72,5.96c-1.06,1.39 -1.92,2.71 -3.94,5.19c-1,1.24 -2.28,2.78 -3.98,4.8c-0.43,0.51 -0.88,1.04 -1.36,1.61c-0.46,0.58 -0.95,1.2 -1.47,1.85c-1.04,1.3 -2.2,2.75 -3.5,4.37c-5.88,6.9 0.07,-2.32 3.07,-6.49c-2.23,2.88 -4.46,5.69 -6.55,8.29c-1.06,1.29 -2.01,2.59 -2.92,3.82c-0.91,1.22 -1.78,2.38 -2.58,3.45c-1.58,2.15 -2.92,3.97 -3.83,5.35c-0.88,1.41 -1.37,2.35 -1.36,2.7c0.68,-0.92 1.3,-1.75 1.87,-2.51c0.59,-0.75 1.15,-1.4 1.65,-1.99c1.02,-1.17 1.86,-2.07 2.57,-2.77c1.41,-1.39 2.3,-1.95 3.01,-2.24c1.44,-0.55 2.11,-0.05 5.02,-2.63c-8.62,11.16 -16.59,22.81 -23.88,34.9c-0.09,-0.78 -0.16,-1.55 -0.23,-2.32c-1.24,2.01 -2.33,4.49 -3.69,7.56c-0.68,1.54 -1.41,3.23 -2.24,5.11c-0.77,1.9 -1.62,3.99 -2.57,6.32c-0.97,2.31 -2.03,4.84 -3.21,7.65c-1.12,2.83 -2.39,5.91 -3.82,9.28c-2.76,6.78 -6.06,14.78 -9.77,24.42c-7.41,19.55 -12.91,40.35 -16.59,61.6c-0.45,2.65 -0.92,5.31 -1.34,7.98c-0.35,2.68 -0.71,5.35 -1.06,8.03c-0.79,5.36 -1.19,10.74 -1.71,16.13c-0.11,1.34 -0.26,2.69 -0.34,4.04l-0.23,4.04l-0.29,5.32c-0.09,1.81 -0.02,3.67 -0.17,5.43c-1.05,0.64 -2.08,1.31 -3.11,1.98l-1.61,1.07l-2.33,1.56c-5.83,3.94 -11.53,7.95 -17.17,11.97c-11.27,8.05 -22.18,16.26 -32.76,24.55c0.15,-0.65 2.92,-3.25 7.02,-6.81c2.07,-1.76 4.47,-3.77 7.04,-5.89c2.57,-2.12 5.35,-4.31 8.11,-6.53c-7.31,5.3 -18.05,13.86 -24.93,18.55c6.86,-4.42 1.41,0.07 -4.32,4.9c-5.78,4.77 -11.81,9.92 -6.74,6.1c-8.99,8.43 -18.67,17.39 -28.64,26.57c-9.95,9.2 -20.04,18.78 -29.89,28.38c-19.59,19.29 -37.8,39.14 -50.79,56.72c0,0.61 -0.33,2.7 -0.83,5.91c-0.46,3.21 -1.1,7.54 -1.84,12.62c-0.77,5 -1.45,10.84 -2.16,16.93c-0.33,3.06 -0.72,6.15 -1,9.33c-0.25,3.17 -0.51,6.39 -0.77,9.59c-0.23,3.19 -0.5,6.33 -0.64,9.46c-0.11,3.12 -0.22,6.18 -0.33,9.14c-0.09,2.95 -0.16,5.78 -0.19,8.46c0.02,2.71 0.06,5.25 0.13,7.6c0.12,4.7 0.33,8.6 0.6,11.38c0.34,2.8 0.72,4.49 1.1,4.73c-6.35,10.47 -11.92,21.21 -13.99,24.34c1.14,-1.19 4.59,-7.02 8.5,-13.96c2.07,-3.41 4.25,-7.11 6.29,-10.66c0.51,-0.89 1,-1.77 1.51,-2.63c0.51,-0.85 1.02,-1.68 1.51,-2.49c0.97,-1.62 1.87,-3.15 2.67,-4.54l-0.48,-2.92c0.95,-1.58 1.79,-3 2.54,-4.26c0.81,-1.23 1.51,-2.32 2.13,-3.27c1.26,-1.9 2.19,-3.27 2.92,-4.29c1.44,-2.04 2.05,-2.65 2.65,-3.23c1.18,-1.19 2.45,-2.22 10.8,-14.07c1.09,-0.16 -2.15,5.25 -7.35,13.07c-2.49,3.97 -5.42,8.57 -8.56,13.39c-1.48,2.44 -3.01,4.95 -4.54,7.47c-0.77,1.25 -1.54,2.51 -2.31,3.77c-0.78,1.25 -1.55,2.49 -2.25,3.76c0.65,-1.13 1.35,-2.24 2.06,-3.33c0.71,-1.09 1.42,-2.19 2.13,-3.27c1.41,-2.17 2.81,-4.32 4.19,-6.43c1.34,-2.13 2.83,-4.12 4.19,-6.1c1.36,-1.97 2.68,-3.89 3.95,-5.73c0.63,-0.92 1.24,-1.82 1.84,-2.7c0.62,-0.87 1.22,-1.72 1.8,-2.54c1.16,-1.66 2.23,-3.22 3.19,-4.69c1.94,-2.93 3.37,-5.49 4.35,-7.45c6.25,-7.75 6.3,-7.01 6.66,-6.68c0.19,0.17 0.44,0.23 1.59,-0.91c1.11,-1.16 3.22,-3.46 7.08,-8.04c1.27,-1.71 2.58,-3.49 3.94,-5.32c1.4,-1.82 2.83,-3.69 4.3,-5.6c1.47,-1.91 2.97,-3.86 4.5,-5.85c1.53,-1.98 3.16,-3.92 4.78,-5.91c1.63,-1.97 3.28,-3.96 4.93,-5.95c1.68,-1.97 3.43,-3.9 5.16,-5.81c1.73,-1.92 3.48,-3.8 5.23,-5.65c1.78,-1.82 3.58,-3.58 5.38,-5.29l-0.04,0.45c17.2,-16.82 30.21,-29.91 43.17,-42.4c12.99,-12.45 25.99,-24.28 43.94,-37.29l-3.42,3.36c6.42,-4.49 15.56,-11.65 26.14,-19.45c5.29,-3.91 10.95,-7.93 16.76,-11.89c1.51,-1.01 3.04,-2.03 4.56,-3.05c2.98,-1.94 5.97,-3.88 8.96,-5.82c3.19,-1.95 6.35,-3.91 9.56,-5.83c3.24,-1.91 6.46,-3.82 9.66,-5.72c-3.68,2.16 -7.28,4.21 -10.12,5.76c-2.84,1.56 -4.88,2.65 -5.57,2.87c-0.69,0.22 0,-0.41 2.69,-2.26c2.68,-1.83 7.43,-4.85 14.8,-9.42c0.21,-0.12 0.41,-0.25 0.6,-0.36c0.25,-8.18 0.49,-16.04 0.72,-23.63c0.06,-1.91 0.11,-3.8 0.16,-5.68c0.02,-0.94 0.05,-1.87 0.07,-2.81c0.03,-0.93 0.14,-1.9 0.19,-2.84c0.04,-0.82 0.09,-1.63 0.13,-2.44c0.03,-0.42 0.06,-0.84 0.09,-1.25c0.05,-0.83 0.11,-1.66 0.16,-2.48c0.15,-3.27 0.53,-6.41 0.82,-9.48c0.29,-3.06 0.53,-6.05 0.97,-8.94c0.39,-2.9 0.77,-5.73 1.15,-8.53c0.5,-2.76 1,-5.49 1.49,-8.2c0.46,-2.71 1.11,-5.36 1.76,-8.01c0.33,-1.32 0.66,-2.64 1,-3.97c0.33,-1.33 0.67,-2.65 1.1,-3.96c0.62,-3.47 1.16,-6.97 1.83,-10.44l2.21,-10.39c1.05,-3.12 2.19,-6.52 3.42,-10.19c1.36,-3.62 2.8,-7.52 4.41,-11.62c0.86,-2.04 1.74,-4.13 2.65,-6.28c0.46,-1.08 0.92,-2.17 1.38,-3.28c0.51,-1.08 1.03,-2.18 1.55,-3.29c1.04,-2.23 2.11,-4.52 3.21,-6.85c1.18,-2.29 2.39,-4.64 3.63,-7.03c5.07,-9.51 10.96,-19.62 18.1,-29.82c7.14,-10.2 15.36,-20.58 24.75,-30.76c18.74,-20.38 42.3,-39.85 69.67,-55.96c13.66,-8.06 28.24,-15.31 43.48,-21.58c1.9,-0.78 3.81,-1.56 5.72,-2.34c0.93,-0.4 1.96,-0.76 2.97,-1.12l3.03,-1.11c4.04,-1.47 8.09,-2.94 12.14,-4.42l6.09,-2.22c2.03,-0.73 4.12,-1.34 6.18,-2.02c4.13,-1.32 8.26,-2.65 12.4,-3.97c33.18,-10.37 67.44,-18.25 100.96,-24.31c33.53,-6.07 66.33,-10.38 96.74,-13.81c15.18,-1.76 29.83,-3.17 43.63,-4.55c13.86,-1.29 26.85,-2.52 38.94,-3.57c24.22,-2.13 44.39,-3.9 59.15,-5.2l-4.62,0.64c7.12,-0.65 14.54,-1.34 22.23,-2.05c7.72,-0.74 15.66,-1.44 23.95,-2.3c16.53,-1.66 34.09,-3.57 52.5,-5.88c36.79,-4.62 76.99,-10.8 118.73,-20.06c20.88,-4.6 42.11,-10.09 63.44,-16.52c21.31,-6.45 42.72,-13.85 63.81,-22.56c21.08,-8.68 41.9,-18.47 61.95,-29.62c2.49,-1.41 4.99,-2.83 7.48,-4.24c1.24,-0.71 2.49,-1.4 3.73,-2.13l3.68,-2.22c2.45,-1.48 4.9,-2.95 7.34,-4.43c0.2,-0.12 -0.16,0.1 -0.23,0.14l0.03,-0.02l0.06,-0.04l0.12,-0.08l0.24,-0.16l0.48,-0.32c1.28,-0.85 2.54,-1.77 3.8,-2.73l0.14,-0.11c0.05,-0.03 0.06,0.08 0.1,0.11l0.16,0.3l0.34,0.6l0.66,1.2c0.42,0.82 0.86,1.63 1.25,2.47l0.27,0.57l0.12,0.26l0.45,1.01c0.58,1.32 1.17,2.63 1.75,3.95c0.54,1.34 1.07,2.67 1.6,4c2.1,5.35 4.35,10.59 6.16,15.96c7.75,21.27 13.65,42.48 17.97,63.06c4.32,20.58 7.08,40.53 8.69,59.35c0.19,2.36 0.37,4.7 0.55,7.01c0.18,2.32 0.39,4.62 0.46,6.9c0.21,4.57 0.42,9.06 0.62,13.46c0.07,4.41 0.14,8.74 0.2,12.97c0.02,1.06 0.03,2.12 0.05,3.17c-0.02,1.05 -0.03,2.09 -0.05,3.13c-0.03,2.07 -0.06,4.12 -0.09,6.15c-0.46,6.79 -1.32,14.2 -1.92,21.95c-0.42,3.87 -0.85,7.82 -1.28,11.81c-0.37,4.01 -0.94,8.04 -1.48,12.08c-0.94,8.09 -2.36,16.16 -3.58,23.98c-0.75,3.89 -1.49,7.71 -2.21,11.43c-0.38,1.86 -0.69,3.7 -1.11,5.49c-0.41,1.79 -0.82,3.54 -1.22,5.27c2.05,-7.61 2.82,-10.11 3.01,-9.14c0.08,0.49 0.02,1.84 -0.29,3.81c-0.32,1.97 -0.84,4.57 -1.51,7.58c-0.58,2.64 -1.12,5.13 -1.63,7.46c-0.59,2.31 -1.14,4.48 -1.65,6.51c-1.04,4.05 -1.84,7.58 -2.69,10.58c-1.7,6.01 -2.83,10.15 -3.6,13.03c-1.66,5.74 -1.79,6.5 -1.84,7.31c-0.06,0.81 -0.11,1.66 -1.77,7.54c-1.82,5.82 -5.09,16.76 -13.38,37.06c-1.21,2.91 -2.52,6.09 -3.93,9.5c-1.53,3.36 -3.17,6.96 -4.91,10.78c-1.69,3.85 -3.73,7.79 -5.8,11.97c-1.05,2.09 -2.12,4.22 -3.21,6.41c-1.16,2.14 -2.36,4.34 -3.57,6.58c-9.68,17.89 -22.27,38.1 -37.79,58.95c-1.88,2.65 -3.97,5.18 -5.99,7.81c-2.05,2.6 -4.07,5.27 -6.2,7.9c-2.17,2.59 -4.35,5.21 -6.55,7.86c-1.1,1.31 -2.2,2.64 -3.31,3.97c-1.15,1.29 -2.31,2.6 -3.46,3.9c-2.32,2.62 -4.65,5.25 -7,7.9c-2.42,2.58 -4.87,5.18 -7.33,7.79c-1.23,1.3 -2.46,2.61 -3.69,3.93c-1.28,1.27 -2.56,2.55 -3.84,3.84c-2.57,2.56 -5.15,5.14 -7.74,7.73c-2.67,2.51 -5.35,5.04 -8.03,7.57c-1.36,1.26 -2.68,2.56 -4.06,3.8c-1.39,1.23 -2.78,2.46 -4.17,3.7c-2.8,2.46 -5.54,4.99 -8.4,7.41c-2.87,2.41 -5.75,4.83 -8.64,7.25c-11.67,9.52 -23.68,18.84 -36.18,27.45l-4.65,3.27c-1.57,1.07 -3.16,2.1 -4.74,3.15c-3.16,2.09 -6.32,4.18 -9.47,6.27c-3.21,2 -6.42,3.99 -9.61,5.98c-1.61,0.99 -3.18,2.02 -4.81,2.96c-1.62,0.95 -3.24,1.9 -4.86,2.85c-12.88,7.7 -26.03,14.58 -39.03,21.07c-26.11,12.74 -51.94,23.26 -76.11,31.14c-24.14,7.97 -46.5,13.64 -65.56,17.58c-9.53,2.05 -18.27,3.46 -25.98,4.8c-3.87,0.56 -7.49,1.08 -10.84,1.57c-1.67,0.24 -3.28,0.46 -4.81,0.68c-1.55,0.18 -3.02,0.35 -4.42,0.5c-23.83,4.32 -51.19,6.59 -78.42,6.7c-27.25,0.14 -54.37,-1.63 -78.21,-3.67l4.85,-0.03c-1.6,-0.15 -3.43,-0.29 -5.48,-0.51c-2.04,-0.25 -4.3,-0.52 -6.77,-0.82c-2.46,-0.3 -5.13,-0.63 -7.99,-0.98c-2.85,-0.39 -5.88,-0.87 -9.09,-1.35c-12.86,-1.87 -28.43,-4.75 -45.74,-8.63c-17.3,-3.9 -36.33,-8.86 -56.02,-15.11c-19.69,-6.21 -40.05,-13.6 -60.1,-21.94c-20.05,-8.34 -39.78,-17.61 -58.32,-27.3c-18.55,-9.68 -35.91,-19.78 -51.4,-29.48c-3.85,-2.46 -7.68,-4.76 -11.27,-7.18c-1.04,-0.7 -2.05,-1.37 -3.03,-2.01c-1.51,-1.06 -2.94,-2.01 -4.22,-2.94c-0.64,-0.46 -1.26,-0.89 -1.84,-1.3c-0.13,-0.05 0.03,-0.12 0.06,-0.18l0.18,-0.18c0.11,-0.13 0.23,-0.25 0.34,-0.36c0.22,-0.24 0.44,-0.47 0.64,-0.69c0.83,-0.89 1.53,-1.66 2.08,-2.3l-1.72,1.29c0.45,-0.58 0.85,-1.11 1.32,-1.65c0.49,-0.57 0.97,-1.09 1.43,-1.59c0.91,-0.98 1.75,-1.82 2.5,-2.52c1.16,-1.05 2.24,-2.03 3.25,-2.95c1.21,-1.07 2.35,-2.08 3.43,-3.04c2.17,-1.9 4.15,-3.58 6.07,-5.18c1.93,-1.6 3.76,-3.16 5.76,-4.73c2,-1.58 4.09,-3.23 6.44,-5.09c2.35,-1.87 4.94,-3.97 7.93,-6.45c0.74,-0.62 1.52,-1.26 2.32,-1.93c0.81,-0.65 1.65,-1.33 2.53,-2.03c1.74,-1.42 3.61,-2.93 5.62,-4.57c-1.45,0.4 -0.45,-1.19 2.08,-4c1.27,-1.4 2.91,-3.1 4.82,-5.01c1.92,-1.89 4.17,-3.92 6.53,-6.08c2.37,-2.16 4.89,-4.41 7.45,-6.67c1.28,-1.12 2.56,-2.25 3.83,-3.36c1.31,-1.09 2.6,-2.16 3.87,-3.22c5.09,-4.2 9.81,-8.03 13.19,-10.72l-0.18,0.84c5.14,-4.01 11.91,-9.29 19.7,-15.37c7.93,-5.89 16.76,-12.77 26.36,-19.5c9.47,-6.92 19.66,-13.75 29.64,-20.46c5.07,-3.25 10.08,-6.46 14.97,-9.59c1.23,-0.78 2.45,-1.55 3.66,-2.31c1.22,-0.74 2.44,-1.47 3.64,-2.2c2.41,-1.44 4.78,-2.86 7.1,-4.24l-0.76,2.05c1.91,-1.21 3.91,-2.48 6.01,-3.8c2.09,-1.33 4.29,-2.7 6.6,-4.03c4.62,-2.7 9.55,-5.56 14.67,-8.49c2.55,-1.5 5.22,-2.88 7.89,-4.34c2.68,-1.44 5.38,-2.89 8.11,-4.35c2.73,-1.45 5.44,-2.96 8.22,-4.35c2.77,-1.39 5.54,-2.79 8.3,-4.17c10.96,-5.65 21.91,-10.62 31.44,-15.14c4.81,-2.15 9.3,-4.14 13.31,-5.93c4.02,-1.8 7.56,-3.42 10.55,-4.65c27.28,-11.46 62.68,-24.27 101.02,-35.85c19.19,-5.68 39.06,-11.29 59.03,-16.18c9.95,-2.61 19.97,-4.81 29.86,-7.18c2.46,-0.62 4.95,-1.12 7.41,-1.66c2.47,-0.54 4.93,-1.08 7.38,-1.62c4.91,-1.06 9.76,-2.22 14.61,-3.16l12.72,-1.28c2.12,-0.21 4.23,-0.45 6.36,-0.62l6.37,-0.5l12.72,-0.99c2.11,-0.18 4.24,-0.3 6.36,-0.41l6.36,-0.35l7.33,-1.37c0,0 1.17,-0.91 3.03,-2.5c1.85,-1.61 4.41,-3.77 7.17,-6.42c5.52,-5.28 11.91,-12.32 15.08,-19.32c3.16,-6.94 3.04,-13.94 -4.73,-19.05c-3.9,-2.55 -9.73,-4.63 -18.07,-6c-4.17,-0.74 -8.94,-1.07 -14.4,-1.28c-2.74,-0.09 -5.64,-0.13 -8.73,-0.11c-1.54,0.01 -3.13,0.03 -4.76,0.07c-1.63,0.07 -3.3,0.16 -5.02,0.27l1.52,-1.64l-21.46,3.56c-25.86,3.81 -37.33,8.04 -35.87,6.28l8.77,-1.74l4.39,-0.86l4.41,-0.77l17.62,-3.08c-25.89,4.25 -8.01,0.26 1.75,-2.25c-5.42,0.88 -10.76,1.74 -15.82,2.57c-5.07,0.78 -9.86,1.52 -14.18,2.2c-4.97,1.57 3.83,-0.25 7.91,-0.66c-6.9,1.54 -15.08,3.73 -23.67,5.77c-8.57,2.17 -17.5,4.41 -25.95,6c-13.05,3.2 -13.6,2.76 -14.7,2.45c-0.55,-0.15 -1.24,-0.27 -3.69,0.11c-1.23,0.2 -2.9,0.51 -5.22,1.02c-2.3,0.56 -5.25,1.31 -9.04,2.33c-5,1.34 -10,2.68 -14.99,4.02c-4.97,1.44 -9.93,2.88 -14.88,4.32l-7.43,2.16l-7.38,2.31c-4.91,1.54 -9.82,3.08 -14.73,4.63c-19.52,6.49 -38.93,13.19 -58,20.7c-19.14,7.31 -37.95,15.39 -56.63,23.72l-13.91,6.46l-6.95,3.24l-6.89,3.39l-13.76,6.77l-13.63,7.06c-9.13,4.63 -18.04,9.67 -27.04,14.57c-2.25,1.21 -4.47,2.49 -6.69,3.78l-6.66,3.84l-6.66,3.85c-2.22,1.28 -4.44,2.57 -6.62,3.92c-8.76,5.34 -17.61,10.57 -26.22,16.19c-4.33,2.78 -8.69,5.52 -13,8.34c-4.28,2.87 -8.56,5.75 -12.84,8.62l-6.42,4.32l-6.33,4.46c-4.23,2.98 -8.45,5.96 -12.68,8.95c-4.17,3.07 -8.34,6.15 -12.51,9.23l-6.26,4.63c-2.09,1.54 -4.11,3.16 -6.17,4.75c-4.11,3.18 -8.22,6.37 -12.33,9.57c-4.1,3.21 -8.11,6.55 -12.17,9.83c-8.16,6.51 -16.06,13.39 -24.05,20.2c-3.28,2.04 0.2,-0.9 3.72,-4.24c-2.38,2.08 -4.75,4.15 -7.1,6.2c-2.32,2.09 -4.61,4.18 -6.9,6.25c-2.28,2.07 -4.56,4.12 -6.82,6.17c-2.26,2.03 -4.51,4.06 -6.69,6.15c-4.39,4.14 -8.73,8.23 -13.04,12.28l-1.61,1.52l-2.72,2.7c-1.92,1.93 -3.84,3.85 -5.75,5.76c-3.83,3.83 -7.64,7.65 -11.44,11.45c-3.8,3.8 -7.59,7.59 -11.37,11.37c-3.73,3.88 -7.45,7.75 -11.16,11.61c-3.71,3.87 -7.4,7.73 -11.1,11.58l-5.53,5.77l-2.76,2.88l-0.68,0.72l-0.18,0.18l-0.08,0.09c-0.04,0.03 -0.07,0.06 -0.01,0.08l0.41,0.29l1.63,1.18c8.73,6.26 17.45,12.5 26.17,18.76c8.71,6.16 17.38,12.33 26.14,18.45c2.39,1.76 4.57,3.36 6.55,4.82c1.96,1.48 3.9,2.79 5.57,4.02c1.69,1.23 3.22,2.34 4.61,3.35c0.34,0.26 0.68,0.51 1.01,0.75c0.2,0.15 0.23,0.18 0.33,0.25l0.24,0.2c0.32,0.27 0.62,0.52 0.91,0.76c2.28,1.96 3.65,3.25 5.12,4.5c-1.43,-1.33 11.34,6.85 32.11,18.62c20.77,11.73 49.7,26.82 80,39.8c3.79,1.62 7.59,3.23 11.38,4.85c3.81,1.53 7.62,3.06 11.41,4.59c1.89,0.75 3.78,1.51 5.66,2.26c1.89,0.71 3.78,1.42 5.66,2.13c3.75,1.41 7.46,2.8 11.12,4.17c14.73,5.23 28.65,9.93 40.82,13.54c3.03,0.91 5.95,1.79 8.74,2.63c2.78,0.83 5.46,1.53 7.97,2.24c2.52,0.7 4.88,1.36 7.07,1.97c1.1,0.3 2.16,0.6 3.17,0.88c1.02,0.26 1.99,0.51 2.92,0.75c7.42,1.9 11.89,3.05 12.39,3.22z" fill="#7f7f7f" id="svg_11"/>
   </g>
  </g>
 </g>
</svg>